<svg xmlns="http://www.w3.org/2000/svg" version="1.1" xmlns:xlink="http://www.w3.org/1999/xlink" width="180" height="180"><svg width="180" height="180" viewBox="0 0 200 200" xmlns="http://www.w3.org/2000/svg"><defs><linearGradient id="SvgjsLinearGradient1028" x1="0%" y1="0%" x2="100%" y2="100%"><stop offset="0%" stop-color="#7C3AED"></stop><stop offset="100%" stop-color="#6D28D9"></stop></linearGradient><linearGradient id="SvgjsLinearGradient1027" x1="0%" y1="0%" x2="100%" y2="0%"><stop offset="0%" stop-color="#F59E0B"></stop><stop offset="100%" stop-color="#FBBF24"></stop></linearGradient></defs><circle cx="100" cy="95" r="75" fill="url(#owlGrad)"></circle><path d="M 60 40 L 50 70 L 70 65 Z" fill="url(#owlGrad)"></path><path d="M 140 40 L 150 70 L 130 65 Z" fill="url(#owlGrad)"></path><circle cx="75" cy="90" r="20" fill="white"></circle><circle cx="125" cy="90" r="20" fill="white"></circle><g><rect x="68" y="95" width="4" height="8" fill="#7C3AED" rx="1"></rect><rect x="73" y="90" width="4" height="13" fill="#7C3AED" rx="1"></rect><rect x="78" y="85" width="4" height="18" fill="#F59E0B" rx="1"></rect></g><g><rect x="118" y="95" width="4" height="8" fill="#7C3AED" rx="1"></rect><rect x="123" y="90" width="4" height="13" fill="#7C3AED" rx="1"></rect><rect x="128" y="85" width="4" height="18" fill="#F59E0B" rx="1"></rect></g><path d="M 100 105 L 90 120 L 100 115 L 110 120 Z" fill="url(#accentGrad)"></path><path d="M 100 155 L 95 165 M 100 155 L 105 165" stroke="#F59E0B" stroke-width="3" stroke-linecap="round"></path></svg><style>@media (prefers-color-scheme: light) { :root { filter: none; } }
@media (prefers-color-scheme: dark) { :root { filter: none; } }
</style></svg>