<svg width="560" height="160" viewBox="0 0 700 200" xmlns="http://www.w3.org/2000/svg"><defs><linearGradient id="marketOwlGrad" x1="0%" y1="0%" x2="100%" y2="100%"><stop offset="0%" stop-color="#7C3AED"/><stop offset="50%" stop-color="#7C3AED"/><stop offset="100%" stop-color="#A855F7"/></linearGradient><linearGradient id="marketAccentGrad" x1="0%" y1="0%" x2="100%" y2="0%"><stop offset="0%" stop-color="#F59E0B"/><stop offset="100%" stop-color="#FBBF24"/></linearGradient><filter id="glow"><feGaussianBlur stdDeviation="4" result="coloredBlur"/><feMerge><feMergeNode in="coloredBlur"/><feMergeNode in="SourceGraphic"/></feMerge></filter></defs><g filter="url(#glow)"><circle cx="80" cy="95" r="60" fill="url(#marketOwlGrad)"/><path d="M 45 45 L 35 80 L 58 75 Z" fill="url(#marketOwlGrad)"/><path d="M 115 45 L 125 80 L 102 75 Z" fill="url(#marketOwlGrad)"/><circle cx="62" cy="90" r="16" fill="white"/><circle cx="98" cy="90" r="16" fill="white"/><g opacity="0.95"><rect x="56" y="96" width="3" height="7" fill="#7C3AED" rx="0.5"/><rect x="60" y="91" width="3" height="12" fill="#7C3AED" rx="0.5"/><rect x="64" y="86" width="3" height="17" fill="#F59E0B" rx="0.5"/></g><g opacity="0.95"><rect x="92" y="96" width="3" height="7" fill="#7C3AED" rx="0.5"/><rect x="96" y="91" width="3" height="12" fill="#7C3AED" rx="0.5"/><rect x="100" y="86" width="3" height="17" fill="#F59E0B" rx="0.5"/></g><path d="M 80 105 L 72 117 L 80 113 L 88 117 Z" fill="url(#marketAccentGrad)"/><path d="M 80 140 L 74 152 M 80 140 L 86 152" stroke="#F59E0B" stroke-width="3" stroke-linecap="round"/><circle cx="130" cy="60" r="3" fill="#F59E0B" opacity="0.8"/><circle cx="145" cy="70" r="2" fill="#F59E0B" opacity="0.6"/><circle cx="140" cy="50" r="2.5" fill="#FBBF24" opacity="0.7"/></g><text x="180" y="110" font-family="'Inter', -apple-system, sans-serif" font-size="80" font-weight="700" fill="#1F2937" letter-spacing="-2.5">Vest</text><text x="370" y="110" font-family="'Inter', -apple-system, sans-serif" font-size="80" font-weight="300" fill="#7C3AED" letter-spacing="-2.5">wise</text><circle cx="590" cy="102" r="5" fill="#F59E0B" opacity="0.6"/><circle cx="610" cy="95" r="3.5" fill="#F59E0B" opacity="0.5"/><circle cx="605" cy="110" r="3" fill="#FBBF24" opacity="0.4"/><text x="180" y="155" font-family="'Inter', -apple-system, sans-serif" font-size="24" font-weight="600" fill="#6B7280" letter-spacing="0.5">Maximize Your RSU &amp; ESPP Potential</text></svg>